<svg width="20" height="20" viewBox="0 0 20 20" fill="none" xmlns="http://www.w3.org/2000/svg">
<path d="M5.83317 10L1.6665 12.0833L9.7017 16.1009C9.81101 16.1556 9.86567 16.1829 9.923 16.1937C9.97378 16.2032 10.0259 16.2032 10.0767 16.1937C10.134 16.1829 10.1887 16.1556 10.298 16.1009L18.3332 12.0833L14.1665 10M1.6665 7.91668L9.7017 3.89908C9.81101 3.84443 9.86567 3.8171 9.923 3.80634C9.97378 3.79681 10.0259 3.79681 10.0767 3.80634C10.134 3.8171 10.1887 3.84443 10.298 3.89908L18.3332 7.91668L10.298 11.9343C10.1887 11.9889 10.134 12.0163 10.0767 12.027C10.0259 12.0365 9.97378 12.0365 9.923 12.027C9.86567 12.0163 9.81101 11.9889 9.7017 11.9343L1.6665 7.91668Z" stroke="black" stroke-width="2" stroke-linecap="round" stroke-linejoin="round"/>
</svg>
