<svg width="20" height="20" viewBox="0 0 20 20" fill="none" xmlns="http://www.w3.org/2000/svg">
<path d="M13.3332 5.83333C13.3332 5.05836 13.3332 4.67087 13.248 4.35295C13.0168 3.49022 12.3429 2.81635 11.4802 2.58519C11.1623 2.5 10.7748 2.5 9.99984 2.5C9.22486 2.5 8.83737 2.5 8.51946 2.58519C7.65673 2.81635 6.98286 3.49022 6.75169 4.35295C6.6665 4.67087 6.6665 5.05836 6.6665 5.83333M10.6665 14.5833H14.7498C14.9832 14.5833 15.0999 14.5833 15.189 14.5379C15.2674 14.498 15.3311 14.4342 15.3711 14.3558C15.4165 14.2667 15.4165 14.15 15.4165 13.9167V11.9167C15.4165 11.6833 15.4165 11.5666 15.3711 11.4775C15.3311 11.3991 15.2674 11.3354 15.189 11.2954C15.0999 11.25 14.9832 11.25 14.7498 11.25H10.6665C10.4331 11.25 10.3165 11.25 10.2273 11.2954C10.1489 11.3354 10.0852 11.3991 10.0453 11.4775C9.99984 11.5666 9.99984 11.6833 9.99984 11.9167V13.9167C9.99984 14.15 9.99984 14.2667 10.0453 14.3558C10.0852 14.4342 10.1489 14.498 10.2273 14.5379C10.3165 14.5833 10.4331 14.5833 10.6665 14.5833ZM5.6665 17.5H14.3332C15.7333 17.5 16.4334 17.5 16.9681 17.2275C17.4386 16.9878 17.821 16.6054 18.0607 16.135C18.3332 15.6002 18.3332 14.9001 18.3332 13.5V9.83333C18.3332 8.4332 18.3332 7.73314 18.0607 7.19836C17.821 6.72795 17.4386 6.3455 16.9681 6.10582C16.4334 5.83333 15.7333 5.83333 14.3332 5.83333H5.6665C4.26637 5.83333 3.56631 5.83333 3.03153 6.10582C2.56112 6.3455 2.17867 6.72795 1.93899 7.19836C1.6665 7.73314 1.6665 8.4332 1.6665 9.83333V13.5C1.6665 14.9001 1.6665 15.6002 1.93899 16.135C2.17867 16.6054 2.56112 16.9878 3.03153 17.2275C3.56631 17.5 4.26637 17.5 5.6665 17.5Z" stroke="black" stroke-width="2" stroke-linecap="round" stroke-linejoin="round"/>
</svg>
